<svg width="117" height="100" viewBox="0 0 117 100" fill="none" xmlns="http://www.w3.org/2000/svg">
<rect width="117" height="100" rx="8" fill="#E8F3FF"/>
<rect width="117" height="100" rx="8" fill="#F1F0FF"/>
<g filter="url(#filter0_d_366_1508)">
<rect x="19" y="19" width="79" height="62" rx="5.18259" fill="white"/>
</g>
<rect x="24" y="28" width="69" height="48" rx="1" fill="#F1F5FD"/>
<mask id="mask0_366_1508" style="mask-type:alpha" maskUnits="userSpaceOnUse" x="24" y="28" width="69" height="48">
<rect x="24" y="28" width="69" height="48" rx="1" fill="#F1F5FD"/>
</mask>
<g mask="url(#mask0_366_1508)">
<rect x="20" y="33" width="22.4324" height="10" rx="2.16216" fill="#FDFFFD"/>
<circle cx="24.4326" cy="38" r="2" fill="#4FD2FC"/>
<rect x="27.7842" y="36.3252" width="3" height="1" rx="0.5" fill="#E8F8FC"/>
<rect x="27.7842" y="38.6768" width="10" height="1" rx="0.5" fill="#E8F8FC"/>
<rect x="45" y="33" width="22.4324" height="10" rx="2.16216" fill="#FDFFFD"/>
<circle cx="49.4326" cy="38" r="2" fill="#4B87FD"/>
<rect x="52.7842" y="36.3252" width="12" height="1" rx="0.5" fill="#E5E8FF"/>
<rect x="52.7842" y="38.6768" width="7" height="1" rx="0.5" fill="#E5E8FF"/>
<rect x="70" y="33" width="22.4324" height="10" rx="2.16216" fill="#FDFFFD"/>
<circle cx="74.4326" cy="38" r="2" fill="#00D6B9"/>
<rect x="77.7842" y="36.3252" width="3" height="1" rx="0.5" fill="#DBF7F2"/>
<rect x="77.7842" y="38.6768" width="10" height="1" rx="0.5" fill="#DBF7F2"/>
<rect x="27" y="47" width="22.4324" height="10" rx="2.16216" fill="#FDFFFD"/>
<circle cx="31.4326" cy="52" r="2" fill="#95D0FF"/>
<rect x="34.7842" y="50.3252" width="3" height="1" rx="0.5" fill="#E8F8FC"/>
<rect x="34.7842" y="52.6768" width="10" height="1" rx="0.5" fill="#E8F8FC"/>
<rect x="52" y="47" width="22.4324" height="10" rx="2.16216" fill="#FDFFFD"/>
<circle cx="56.4326" cy="52" r="2" fill="#00D6B9"/>
<rect x="59.7842" y="50.3252" width="12" height="1" rx="0.5" fill="#E5E8FF"/>
<rect x="59.7842" y="52.6768" width="7" height="1" rx="0.5" fill="#E5E8FF"/>
<rect x="77" y="47" width="22.4324" height="10" rx="2.16216" fill="#FDFFFD"/>
<circle cx="81.4326" cy="52" r="2" fill="#50CEFB"/>
<rect x="84.7842" y="50.3252" width="3" height="1" rx="0.5" fill="#DBF7F2"/>
<rect x="84.7842" y="52.6768" width="10" height="1" rx="0.5" fill="#DBF7F2"/>
<rect x="11" y="61" width="22.4324" height="10" rx="2.16216" fill="#FDFFFD"/>
<rect x="18.7842" y="66.6768" width="10" height="1" rx="0.5" fill="#E8F8FC"/>
<rect x="86" y="61" width="22.4324" height="10" rx="2.16216" fill="#FDFFFD"/>
<circle cx="90.4326" cy="66" r="2" fill="#4E83FD"/>
<rect x="36" y="61" width="22.4324" height="10" rx="2.16216" fill="#FDFFFD"/>
<circle cx="40.4326" cy="66" r="2" fill="#50CEFB"/>
<rect x="43.7842" y="64.3252" width="12" height="1" rx="0.5" fill="#E5E8FF"/>
<rect x="43.7842" y="66.6768" width="7" height="1" rx="0.5" fill="#E5E8FF"/>
<rect x="61" y="61" width="22.4324" height="10" rx="2.16216" fill="#FDFFFD"/>
<circle cx="65.4326" cy="66" r="2" fill="#95D0FF"/>
<rect x="68.7842" y="64.3252" width="3" height="1" rx="0.5" fill="#DBF7F2"/>
<rect x="68.7842" y="66.6768" width="10" height="1" rx="0.5" fill="#DBF7F2"/>
</g>
<circle cx="25.2956" cy="24.2956" r="1.29565" fill="#F54A45"/>
<circle cx="29.5066" cy="24.2956" r="1.29565" fill="#F3DA05"/>
<circle cx="33.7175" cy="24.2956" r="1.29565" fill="#1ADD99"/>
<defs>
<filter id="filter0_d_366_1508" x="18.0283" y="18.0283" width="81.5913" height="64.5913" filterUnits="userSpaceOnUse" color-interpolation-filters="sRGB">
<feFlood flood-opacity="0" result="BackgroundImageFix"/>
<feColorMatrix in="SourceAlpha" type="matrix" values="0 0 0 0 0 0 0 0 0 0 0 0 0 0 0 0 0 0 127 0" result="hardAlpha"/>
<feOffset dx="0.323912" dy="0.323912"/>
<feGaussianBlur stdDeviation="0.647824"/>
<feComposite in2="hardAlpha" operator="out"/>
<feColorMatrix type="matrix" values="0 0 0 0 0 0 0 0 0 0 0 0 0 0 0 0 0 0 0.1 0"/>
<feBlend mode="normal" in2="BackgroundImageFix" result="effect1_dropShadow_366_1508"/>
<feBlend mode="normal" in="SourceGraphic" in2="effect1_dropShadow_366_1508" result="shape"/>
</filter>
</defs>
</svg>
