<svg width="20" height="20" viewBox="0 0 20 20" fill="none" xmlns="http://www.w3.org/2000/svg">
<path fill-rule="evenodd" clip-rule="evenodd" d="M2.08329 3.7474C2.08329 3.28716 2.45639 2.91406 2.91663 2.91406L17.0833 2.91406C17.5435 2.91406 17.9166 3.28716 17.9166 3.7474C17.9166 4.20763 17.5435 4.58073 17.0833 4.58073L2.91663 4.58073C2.45639 4.58073 2.08329 4.20763 2.08329 3.7474ZM2.08329 9.99739C2.08329 9.53716 2.45639 9.16406 2.91663 9.16406L13.5416 9.16406C14.0019 9.16406 14.375 9.53716 14.375 9.99739C14.375 10.4576 14.0019 10.8307 13.5416 10.8307L2.91663 10.8307C2.45639 10.8307 2.08329 10.4576 2.08329 9.99739ZM2.08329 16.2474C2.08329 15.7872 2.45639 15.4141 2.91663 15.4141L7.08329 15.4141C7.54353 15.4141 7.91663 15.7872 7.91663 16.2474C7.91663 16.7076 7.54353 17.0807 7.08329 17.0807L2.91663 17.0807C2.45639 17.0807 2.08329 16.7076 2.08329 16.2474Z" fill="#1F2329"/>
</svg>
