<svg width="33" height="33" viewBox="0 0 33 33" fill="none" xmlns="http://www.w3.org/2000/svg">
<path d="M19.5 9C18.1887 9 17.0738 9.84136 16.6659 11.0137C16.6119 11.0047 16.5565 11 16.5 11L7.5 11C6.94772 11 6.5 11.4477 6.5 12C6.5 12.5523 6.94772 13 7.5 13L16.5 13C16.5565 13 16.6119 12.9953 16.6659 12.9863C17.0738 14.1586 18.1887 15 19.5 15C20.8113 15 21.9262 14.1586 22.3341 12.9863C22.3881 12.9953 22.4435 13 22.5 13L25.5 13C26.0523 13 26.5 12.5523 26.5 12C26.5 11.4477 26.0523 11 25.5 11H22.5C22.4435 11 22.3881 11.0047 22.3341 11.0137C21.9262 9.84136 20.8113 9 19.5 9Z" fill="#707987"/>
<path d="M10.6659 21.0137C10.6119 21.0047 10.5565 21 10.5 21H7.5C6.94772 21 6.5 21.4477 6.5 22C6.5 22.5523 6.94772 23 7.5 23H10.5C10.5565 23 10.6119 22.9953 10.6659 22.9863C11.0738 24.1586 12.1887 25 13.5 25C14.8113 25 15.9262 24.1586 16.3341 22.9863C16.3881 22.9953 16.4435 23 16.5 23L25.5 23C26.0523 23 26.5 22.5523 26.5 22C26.5 21.4477 26.0523 21 25.5 21L16.5 21C16.4435 21 16.3881 21.0047 16.3341 21.0137C15.9262 19.8414 14.8113 19 13.5 19C12.1887 19 11.0738 19.8414 10.6659 21.0137Z" fill="#707987"/>
</svg>
