<svg width="17" height="16" viewBox="0 0 17 16" fill="none" xmlns="http://www.w3.org/2000/svg">
<path fill-rule="evenodd" clip-rule="evenodd" d="M5.1002 5.3334C5.1002 3.45563 6.62243 1.9334 8.5002 1.9334C10.378 1.9334 11.9002 3.45563 11.9002 5.3334V10.6667C11.9002 12.5445 10.378 14.0667 8.5002 14.0667C8.16883 14.0667 7.9002 14.3354 7.9002 14.6667C7.9002 14.9981 8.16883 15.2667 8.5002 15.2667C10.8543 15.2667 12.7953 13.4984 13.0675 11.2176C14.6012 10.9491 15.7669 9.6107 15.7669 8.00006C15.7669 6.38943 14.6012 5.05106 13.0675 4.78249C12.7953 2.50171 10.8543 0.733398 8.5002 0.733398C6.14613 0.733398 4.20507 2.5017 3.93285 4.78247C2.39909 5.05099 1.2334 6.38939 1.2334 8.00006C1.2334 9.8042 2.69594 11.2667 4.50006 11.2667C4.50011 11.2667 4.50015 11.2667 4.5002 11.2667C4.83157 11.2667 5.1002 10.9981 5.1002 10.6667V5.3334ZM3.9002 9.97833V6.0218C3.05135 6.27885 2.4334 7.06729 2.4334 8.00006C2.4334 8.93284 3.05135 9.72127 3.9002 9.97833ZM13.1002 6.02184V9.97829C13.949 9.72119 14.5669 8.93279 14.5669 8.00006C14.5669 7.06734 13.949 6.27893 13.1002 6.02184Z" fill="#1F2329"/>
</svg>
