<svg width="117" height="100" viewBox="0 0 117 100" fill="none" xmlns="http://www.w3.org/2000/svg">
<rect width="117" height="100" rx="8" fill="#E8F3FF"/>
<rect width="117" height="100" rx="8" fill="#E8F3FF"/>
<rect x="29" y="21" width="63" height="57" rx="2" fill="#E8F3FF"/>
<g filter="url(#filter0_d_366_581)">
<rect x="19" y="19" width="79" height="62" rx="5.18259" fill="white"/>
</g>
<rect x="24" y="30" width="68" height="12" rx="0.323912" fill="#F7F9FA"/>
<rect x="29" y="37.6182" width="37.8788" height="2.26621" rx="1.13311" fill="#4E83FD"/>
<rect x="29" y="32.3311" width="9.09091" height="2.26621" rx="1.13311" fill="#50CEFB"/>
<circle cx="25.2956" cy="24.2956" r="1.29565" fill="#F54A45"/>
<circle cx="29.5066" cy="24.2956" r="1.29565" fill="#F3DA05"/>
<circle cx="33.7175" cy="24.2956" r="1.29565" fill="#1ADD99"/>
<rect x="24" y="45.1729" width="67.4411" height="12.0865" rx="0.323912" fill="#F7F9FA"/>
<rect x="28.6514" y="52.7266" width="58.1389" height="2.26621" rx="1.13311" fill="#50CEFB"/>
<rect x="28.6514" y="47.4385" width="13.9533" height="2.26621" rx="1.13311" fill="#00D6B9"/>
<rect x="24" y="60" width="68" height="12" rx="0.323912" fill="#F7F9FA"/>
<rect x="29" y="67.835" width="37.8788" height="2.26621" rx="1.13311" fill="#95D0FF"/>
<rect x="29" y="62.5469" width="9.09091" height="2.26621" rx="1.13311" fill="#4E83FD"/>
<path d="M78.9141 62.7934C78.8828 62.5126 79.2007 62.3291 79.4281 62.4966L82.32 64.6264C82.5685 64.8094 82.4446 65.2033 82.1361 65.211L80.8501 65.2435C80.7402 65.2462 80.6393 65.3045 80.5819 65.3983L79.9109 66.4958C79.7499 66.759 79.3469 66.6694 79.3126 66.3627L78.9141 62.7934Z" fill="#3370FF"/>
<defs>
<filter id="filter0_d_366_581" x="18.0283" y="18.0283" width="81.5913" height="64.5913" filterUnits="userSpaceOnUse" color-interpolation-filters="sRGB">
<feFlood flood-opacity="0" result="BackgroundImageFix"/>
<feColorMatrix in="SourceAlpha" type="matrix" values="0 0 0 0 0 0 0 0 0 0 0 0 0 0 0 0 0 0 127 0" result="hardAlpha"/>
<feOffset dx="0.323912" dy="0.323912"/>
<feGaussianBlur stdDeviation="0.647824"/>
<feComposite in2="hardAlpha" operator="out"/>
<feColorMatrix type="matrix" values="0 0 0 0 0 0 0 0 0 0 0 0 0 0 0 0 0 0 0.1 0"/>
<feBlend mode="normal" in2="BackgroundImageFix" result="effect1_dropShadow_366_581"/>
<feBlend mode="normal" in="SourceGraphic" in2="effect1_dropShadow_366_581" result="shape"/>
</filter>
</defs>
</svg>
