<svg width="33" height="33" viewBox="0 0 33 33" fill="none" xmlns="http://www.w3.org/2000/svg">
<path d="M17.5 6.54688V9.57687C20.89 10.0669 23.5 12.9669 23.5 16.4969C23.5 17.3969 23.32 18.2469 23.02 19.0369L25.62 20.5669C26.18 19.3269 26.5 17.9469 26.5 16.4969C26.5 11.3169 22.55 7.04688 17.5 6.54688ZM16.5 23.4969C12.63 23.4969 9.5 20.3669 9.5 16.4969C9.5 12.9669 12.11 10.0669 15.5 9.57687V6.54688C10.44 7.04688 6.5 11.3069 6.5 16.4969C6.5 22.0169 10.97 26.4969 16.49 26.4969C19.8 26.4969 22.73 24.8869 24.55 22.4069L21.95 20.8769C21.2976 21.6959 20.4686 22.357 19.5249 22.8107C18.5812 23.2644 17.5471 23.4989 16.5 23.4969Z" fill="#707987"/>
</svg>
