<svg width="17" height="16" viewBox="0 0 17 16" fill="none" xmlns="http://www.w3.org/2000/svg">
<path d="M8.50016 14.6673C10.3411 14.6673 12.0078 13.9211 13.2142 12.7147C14.4206 11.5083 15.1668 9.84158 15.1668 8.00065C15.1668 6.15972 14.4206 4.49305 13.2142 3.2866C12.0078 2.08018 10.3411 1.33398 8.50016 1.33398C6.65923 1.33398 4.99256 2.08018 3.78612 3.2866C2.57969 4.49305 1.8335 6.15972 1.8335 8.00065C1.8335 9.84158 2.57969 11.5083 3.78612 12.7147C4.99256 13.9211 6.65923 14.6673 8.50016 14.6673Z" stroke="#1F2329" stroke-width="1.2" stroke-linejoin="round"/>
<path d="M8.5 9.54232V8.20898C9.60457 8.20898 10.5 7.31355 10.5 6.20898C10.5 5.10442 9.60457 4.20898 8.5 4.20898C7.39543 4.20898 6.5 5.10442 6.5 6.20898" stroke="#1F2329" stroke-width="1.2" stroke-linecap="round" stroke-linejoin="round"/>
<path fill-rule="evenodd" clip-rule="evenodd" d="M8.49979 12.4303C8.89743 12.4303 9.21979 12.1075 9.21979 11.7093C9.21979 11.3111 8.89743 10.9883 8.49979 10.9883C8.10214 10.9883 7.77979 11.3111 7.77979 11.7093C7.77979 12.1075 8.10214 12.4303 8.49979 12.4303Z" fill="#1F2329"/>
</svg>
