<svg width="33" height="33" viewBox="0 0 33 33" fill="none" xmlns="http://www.w3.org/2000/svg">
<path d="M8.09921 13.7007C7.87756 13.8907 7.75 14.168 7.75 14.4599V24.25C7.75 24.8023 8.19772 25.25 8.75 25.25H13C13.5523 25.25 14 24.8023 14 24.25V20.25C14 18.8693 15.1193 17.75 16.5 17.75C17.8807 17.75 19 18.8693 19 20.25V24.25C19 24.8023 19.4477 25.25 20 25.25H24.25C24.8023 25.25 25.25 24.8023 25.25 24.25V14.4599C25.25 14.168 25.1224 13.8907 24.9008 13.7007L17.1508 7.05782C16.7763 6.73683 16.2237 6.73683 15.8492 7.05782L8.09921 13.7007Z" fill="#707987"/>
</svg>
