<svg width="40" height="40" viewBox="0 0 40 40" fill="none" xmlns="http://www.w3.org/2000/svg">
<path d="M7.50177 11.2114C7.50177 10.1943 7.50177 9.68576 7.70285 9.29865C7.8723 8.97245 8.13828 8.70647 8.46449 8.53702C8.85159 8.33594 9.36015 8.33594 10.3773 8.33594H17.8829C18.3156 8.33594 18.5319 8.33594 18.7359 8.38453C18.9094 8.42584 19.0757 8.49289 19.2293 8.58345C19.4099 8.68997 19.5658 8.84004 19.8774 9.14016L20.0619 9.31775C20.3735 9.61787 20.5294 9.76794 20.71 9.87446C20.8636 9.96502 21.0299 10.0321 21.2034 10.0734C21.4074 10.122 21.6238 10.122 22.0564 10.122H29.6307C30.6479 10.122 31.1564 10.122 31.5435 10.3231C31.8697 10.4925 32.1357 10.7585 32.3051 11.0847C32.5062 11.4718 32.5062 11.9804 32.5062 12.9975V30.1166C32.5062 30.6252 32.5062 30.8795 32.4057 31.073C32.321 31.2361 32.188 31.3691 32.0249 31.4538C31.8313 31.5544 31.577 31.5544 31.0685 31.5544H10.0897C9.17432 31.5544 8.71661 31.5544 8.36822 31.3734C8.07463 31.2209 7.83525 30.9815 7.68274 30.6879C7.50177 30.3395 7.50177 29.8818 7.50177 28.9664V11.2114Z" fill="#FFDF7D"/>
<g filter="url(#filter0_b_1122_11975)">
<path d="M14.1223 16.3899C14.3749 15.5211 14.5012 15.0867 14.8347 14.8363C15.1682 14.5859 15.6205 14.5859 16.525 14.5859H32.9967C34.421 14.5859 35.1331 14.5859 35.5084 15.0484C35.8837 15.5109 35.737 16.2078 35.4435 17.6015L32.9243 29.5679C32.7241 30.519 32.624 30.9945 32.2796 31.2739C31.9353 31.5532 31.4494 31.5532 30.4775 31.5532H9.2879C10.2117 30.5486 10.2117 29.544 11.1355 26.53C11.7983 24.3677 13.317 19.1601 14.1223 16.3899Z" fill="#FFBC00"/>
</g>
<path d="M11.0739 11.0102C11.0739 10.517 11.4737 10.1172 11.9669 10.1172H15.5389C16.0321 10.1172 16.432 10.517 16.432 11.0102C16.432 11.5034 16.0321 11.9032 15.5389 11.9032H11.9669C11.4737 11.9032 11.0739 11.5034 11.0739 11.0102Z" fill="white"/>
<defs>
<filter id="filter0_b_1122_11975" x="5.71584" y="11.0139" width="33.589" height="24.1129" filterUnits="userSpaceOnUse" color-interpolation-filters="sRGB">
<feFlood flood-opacity="0" result="BackgroundImageFix"/>
<feGaussianBlur in="BackgroundImageFix" stdDeviation="1.78603"/>
<feComposite in2="SourceAlpha" operator="in" result="effect1_backgroundBlur_1122_11975"/>
<feBlend mode="normal" in="SourceGraphic" in2="effect1_backgroundBlur_1122_11975" result="shape"/>
</filter>
</defs>
</svg>
