<svg width="201" height="150" viewBox="0 0 201 150" fill="none" xmlns="http://www.w3.org/2000/svg">
<path d="M144.995 30.8931H50.585V112.533H144.995V30.8931Z" fill="#D6DAE1"/>
<path d="M134.951 39.7197H60.2119V102.945H134.951V39.7197Z" fill="#EFF2F4"/>
<path d="M122.301 53.292H73.4512V54.322H122.301V53.292ZM122.301 60.2865H73.4512V61.316H122.301V60.2865ZM122.301 67.267H73.4512V68.2965H122.301V67.267ZM122.301 74.2475H73.4512V75.277H122.301V74.2475ZM91.2102 81.241H73.4512V82.284H91.2102V81.241Z" fill="white"/>
<rect x="97.5" y="78" width="23" height="7" rx="3.5" fill="#3370FF"/>
<path d="M127.261 135.154C127.261 135.154 109.967 99.5964 108.763 96.1712C105.513 86.9083 106.916 82.2371 112.782 83.251C116.118 83.8186 119.852 87.5967 124.946 97.0949" stroke="#231815" stroke-width="1.07" stroke-miterlimit="10"/>
<path d="M126.68 111.242C126.68 111.242 118.33 100.011 127.985 93.5074C129.232 92.6272 130.732 92.1782 132.257 92.2285C133.782 92.2788 135.249 92.8257 136.435 93.7862" stroke="#231815" stroke-width="1.07" stroke-miterlimit="10"/>
<path d="M143.844 94.423C142.215 91.8531 136.963 91.5257 133.63 96.5296C129.673 102.455 134.885 110.713 134.885 110.713" stroke="#231815" stroke-width="1.07" stroke-miterlimit="10"/>
<path d="M144.146 106.219C144.146 106.219 138.888 101.604 143.089 95.946C147.29 90.288 151.498 92.1624 154.704 93.7789C157.703 95.7355 160.149 98.4302 161.807 101.604C163.962 106.984 159.851 111.141 156.756 110.407" stroke="#231815" stroke-width="1.07" stroke-miterlimit="10"/>
<path d="M162.233 122.492C162.233 122.492 154.242 103.634 151.677 101.979C151.677 101.979 148.884 100.046 153.753 99.5856" stroke="#231815" stroke-width="1.07" stroke-miterlimit="10"/>
</svg>
