<svg width="16" height="16" viewBox="0 0 16 16" fill="none" xmlns="http://www.w3.org/2000/svg">
<path d="M4.33005 3.20394C4.10005 2.93794 3.69938 2.8966 3.44271 3.13727C2.7761 3.76011 2.24482 4.51349 1.88193 5.35051C1.51904 6.18754 1.33232 7.0903 1.33338 8.0026C1.33338 11.6846 4.31805 14.6693 8.00005 14.6693C11.682 14.6693 14.6667 11.6846 14.6667 8.0026C14.6667 4.3206 11.682 1.33594 8.00005 1.33594H7.92871C7.59004 1.33994 7.33338 1.6266 7.33338 1.96527V4.0026C7.33338 4.17941 7.40362 4.34898 7.52864 4.47401C7.65367 4.59903 7.82323 4.66927 8.00005 4.66927C8.17686 4.66927 8.34643 4.59903 8.47145 4.47401C8.59647 4.34898 8.66671 4.17941 8.66671 4.0026V2.7106C10.0116 2.88173 11.2408 3.55852 12.1046 4.60342C12.9684 5.64832 13.4019 6.98291 13.317 8.33596C13.2321 9.689 12.6352 10.9589 11.6475 11.8877C10.6599 12.8164 9.35575 13.3343 8.00005 13.3359C6.94175 13.3359 5.9074 13.021 5.02862 12.4313C4.14983 11.8417 3.46634 11.0039 3.06511 10.0246C2.66389 9.0453 2.56308 7.96879 2.77552 6.93204C2.98795 5.89529 3.50401 4.94518 4.25805 4.2026C4.53138 3.93327 4.58138 3.49394 4.33005 3.20394Z" fill="#1F2329"/>
<path d="M8.71128 7.32115C8.60995 7.21782 5.75328 5.40582 5.75328 5.40582C5.70836 5.36211 5.6485 5.33714 5.58584 5.33598C5.52318 5.33482 5.46242 5.35755 5.41592 5.39956C5.36941 5.44157 5.34064 5.4997 5.33544 5.56216C5.33025 5.62461 5.34902 5.6867 5.38795 5.73582L5.40528 5.75315C5.40528 5.75315 7.21728 8.61115 7.31928 8.71315C7.48046 8.8739 7.69235 8.97384 7.9189 8.99597C8.14546 9.0181 8.37268 8.96105 8.56192 8.83453C8.75115 8.708 8.8907 8.51982 8.95683 8.30201C9.02296 8.08419 9.01157 7.85019 8.92461 7.63982C8.87511 7.52062 8.80262 7.41234 8.71128 7.32115Z" fill="#1F2329"/>
</svg>
