<svg width="17" height="16" viewBox="0 0 17 16" fill="none" xmlns="http://www.w3.org/2000/svg">
<path d="M10.3135 5.86016L7.4535 8.72683L6.3535 7.62683C6.29373 7.55704 6.22019 7.50036 6.13748 7.46035C6.05477 7.42033 5.96468 7.39784 5.87287 7.3943C5.78106 7.39075 5.6895 7.40622 5.60395 7.43974C5.5184 7.47325 5.4407 7.52409 5.37573 7.58906C5.31076 7.65403 5.25992 7.73173 5.22641 7.81728C5.19289 7.90283 5.17742 7.99439 5.18097 8.0862C5.18451 8.17801 5.207 8.2681 5.24702 8.35081C5.28703 8.43352 5.34371 8.50707 5.4135 8.56683L6.98017 10.1402C7.04246 10.202 7.11634 10.2508 7.19756 10.284C7.27879 10.3172 7.36576 10.334 7.4535 10.3335C7.62839 10.3328 7.79599 10.2633 7.92017 10.1402L11.2535 6.80683C11.316 6.74485 11.3656 6.67112 11.3994 6.58988C11.4333 6.50864 11.4507 6.4215 11.4507 6.3335C11.4507 6.24549 11.4333 6.15835 11.3994 6.07711C11.3656 5.99587 11.316 5.92214 11.2535 5.86016C11.1286 5.736 10.9596 5.6663 10.7835 5.6663C10.6074 5.6663 10.4384 5.736 10.3135 5.86016ZM8.50017 1.3335C7.18162 1.3335 5.89269 1.72449 4.79636 2.45703C3.70004 3.18957 2.84555 4.23077 2.34097 5.44894C1.83638 6.66711 1.70436 8.00756 1.9616 9.30077C2.21883 10.594 2.85377 11.7819 3.78612 12.7142C4.71847 13.6466 5.90636 14.2815 7.19956 14.5387C8.49277 14.796 9.83322 14.6639 11.0514 14.1594C12.2696 13.6548 13.3108 12.8003 14.0433 11.704C14.7758 10.6076 15.1668 9.31871 15.1668 8.00016C15.1668 7.12468 14.9944 6.25778 14.6594 5.44894C14.3243 4.6401 13.8333 3.90517 13.2142 3.28612C12.5952 2.66706 11.8602 2.176 11.0514 1.84097C10.2426 1.50593 9.37565 1.3335 8.50017 1.3335ZM8.50017 13.3335C7.44533 13.3335 6.41419 13.0207 5.53712 12.4347C4.66006 11.8486 3.97648 11.0157 3.57281 10.0411C3.16914 9.0666 3.06352 7.99425 3.26931 6.95968C3.4751 5.92512 3.98305 4.97481 4.72893 4.22893C5.47481 3.48305 6.42512 2.9751 7.45968 2.76931C8.49425 2.56352 9.56661 2.66914 10.5411 3.07281C11.5157 3.47647 12.3486 4.16006 12.9347 5.03712C13.5207 5.91418 13.8335 6.94533 13.8335 8.00016C13.8335 9.41465 13.2716 10.7712 12.2714 11.7714C11.2712 12.7716 9.91465 13.3335 8.50017 13.3335Z" fill="#3370FF"/>
</svg>
