<svg width="240" height="240" viewBox="0 0 240 240" fill="none" xmlns="http://www.w3.org/2000/svg">
<rect width="240" height="240" fill="#8D55ED"/>
<path d="M158.68 191H81.3202C78.1936 191 75.6924 188.501 75.6924 185.377C75.6924 182.254 78.1936 179.755 81.3202 179.755H158.68C161.807 179.755 164.308 182.254 164.308 185.377C164.308 188.501 161.807 191 158.68 191Z" fill="white"/>
<path d="M48 63C48 60.2386 50.2386 58 53 58H167C180.807 58 192 69.1929 192 83V161C192 163.761 189.761 166 187 166H73C59.1929 166 48 154.807 48 141V63Z" fill="white"/>
<path d="M93 82C91.4087 82 89.8826 82.6321 88.7574 83.7574C87.6321 84.8826 87 86.4087 87 88C87 89.5913 87.6321 91.1174 88.7574 92.2426C89.8826 93.3679 91.4087 94 93 94H99C100.591 94 102.117 93.3679 103.243 92.2426C104.368 91.1174 105 89.5913 105 88C105 86.4087 104.368 84.8826 103.243 83.7574C102.117 82.6321 100.591 82 99 82H93ZM123 82C121.409 82 119.883 82.6321 118.757 83.7574C117.632 84.8826 117 86.4087 117 88C117 89.5913 117.632 91.1174 118.757 92.2426C119.883 93.3679 121.409 94 123 94H147C148.591 94 150.117 93.3679 151.243 92.2426C152.368 91.1174 153 89.5913 153 88C153 86.4087 152.368 84.8826 151.243 83.7574C150.117 82.6321 148.591 82 147 82H123ZM93 106C91.4087 106 89.8826 106.632 88.7574 107.757C87.6321 108.883 87 110.409 87 112C87 113.591 87.6321 115.117 88.7574 116.243C89.8826 117.368 91.4087 118 93 118H99C100.591 118 102.117 117.368 103.243 116.243C104.368 115.117 105 113.591 105 112C105 110.409 104.368 108.883 103.243 107.757C102.117 106.632 100.591 106 99 106H93ZM123 106C121.409 106 119.883 106.632 118.757 107.757C117.632 108.883 117 110.409 117 112C117 113.591 117.632 115.117 118.757 116.243C119.883 117.368 121.409 118 123 118H147C148.591 118 150.117 117.368 151.243 116.243C152.368 115.117 153 113.591 153 112C153 110.409 152.368 108.883 151.243 107.757C150.117 106.632 148.591 106 147 106H123ZM87 136C87 134.409 87.6321 132.883 88.7574 131.757C89.8826 130.632 91.4087 130 93 130H99C100.591 130 102.117 130.632 103.243 131.757C104.368 132.883 105 134.409 105 136C105 137.591 104.368 139.117 103.243 140.243C102.117 141.368 100.591 142 99 142H93C91.4087 142 89.8826 141.368 88.7574 140.243C87.6321 139.117 87 137.591 87 136ZM117 136C117 134.409 117.632 132.883 118.757 131.757C119.883 130.632 121.409 130 123 130H147C148.591 130 150.117 130.632 151.243 131.757C152.368 132.883 153 134.409 153 136C153 137.591 152.368 139.117 151.243 140.243C150.117 141.368 148.591 142 147 142H123C121.409 142 119.883 141.368 118.757 140.243C117.632 139.117 117 137.591 117 136Z" fill="#8D55ED"/>
</svg>
